<svg id="SvgjsSvg1130" width="288" height="288" xmlns="http://www.w3.org/2000/svg" version="1.1" xmlns:xlink="http://www.w3.org/1999/xlink" xmlns:svgjs="http://svgjs.com/svgjs"><defs id="SvgjsDefs1131"></defs><g id="SvgjsG1132"><svg xmlns="http://www.w3.org/2000/svg" viewBox="0 0 47.5 47.5" width="288" height="288"><defs><clipPath id="a"><path d="M0 38h38V0H0v38Z" fill="#364f6b" class="color000 svgShape"></path></clipPath></defs><g clip-path="url(#a)" transform="matrix(1.25 0 0 -1.25 0 47.5)" fill="#364f6b" class="color000 svgShape"><path fill="#37c0c1" d="M37 5a4 4 0 0 0-4-4H5a4 4 0 0 0-4 4v28a4 4 0 0 0 4 4h28a4 4 0 0 0 4-4V5Z" class="color3b88c3 svgShape"></path><path fill="#ffffff" d="M25.281 12.093c1.301 0 2.232-.713 2.232-2.046C27.513 8.868 26.396 8 25.281 8H13.095c-1.644 0-2.605.93-2.605 2.233 0 .62.217 1.24.621 1.798l9.983 13.953H12.94c-1.241 0-2.17.713-2.17 1.984 0 1.178.992 2.108 2.17 2.108h11.349c1.797 0 2.603-1.147 2.603-2.232 0-.682-.279-1.457-.681-1.984l-9.923-13.767h8.993Z" class="colorfff svgShape"></path></g></svg></g></svg>