<?xml version="1.0" standalone="no"?>
<!DOCTYPE svg PUBLIC "-//W3C//DTD SVG 20010904//EN"
 "http://www.w3.org/TR/2001/REC-SVG-20010904/DTD/svg10.dtd">
<svg version="1.0" xmlns="http://www.w3.org/2000/svg"
 width="500.000000pt" height="500.000000pt" viewBox="0 0 500.000000 500.000000"
 preserveAspectRatio="xMidYMid meet">

<g transform="translate(0.000000,500.000000) scale(0.100000,-0.100000)"
fill="#000000" stroke="none">
<path d="M0 2500 l0 -2500 2500 0 2500 0 0 2500 0 2500 -2500 0 -2500 0 0
-2500z m3095 553 c-18 -3 -20 -11 -19 -66 1 -34 0 -44 -2 -22 -7 69 -13 83
-37 88 -12 2 1 4 28 4 28 0 41 -2 30 -4z m93 -44 c-13 -73 -6 -79 31 -26 36
53 41 56 41 26 0 -11 -4 -18 -10 -14 -5 3 -21 -12 -36 -35 -15 -22 -31 -40
-37 -40 -9 0 -2 115 9 132 11 17 11 6 2 -43z m101 -64 c-40 -53 -59 -62 -59
-27 0 15 2 15 10 2 7 -10 12 -12 18 -4 42 63 58 84 65 84 4 0 -11 -25 -34 -55z
m-42 3 c-3 -7 -5 -2 -5 12 0 14 2 19 5 13 2 -7 2 -19 0 -25z m193 -74 c0 -5
-11 5 -24 21 -23 28 -26 29 -42 13 -17 -17 -17 -18 1 -38 10 -11 16 -22 13
-25 -3 -3 -13 6 -22 20 -14 22 -19 23 -36 13 -24 -16 -25 -26 -3 -50 9 -10 14
-20 11 -23 -2 -3 -14 9 -26 25 l-22 29 51 41 50 40 25 -29 c13 -16 24 -33 24
-37z m46 -112 c2 -20 1 -20 -3 -2 -3 15 -11 20 -26 18 -18 -2 -22 -9 -20 -38
l1 -35 -10 33 c-8 22 -16 31 -25 27 -8 -3 -19 -5 -25 -5 -7 0 -8 -16 -5 -42 4
-29 3 -36 -2 -22 -23 55 -19 67 29 80 63 17 85 14 86 -14z m14 -147 c0 -24 -2
-25 -42 -19 -76 12 -96 23 -30 17 53 -5 62 -3 62 11 0 9 2 16 5 16 3 0 5 -11
5 -25z m-13 -57 c-3 -8 -6 -5 -6 6 -1 11 2 17 5 13 3 -3 4 -12 1 -19z"/>
</g>
</svg>
